<svg width="24" height="24" viewBox="0 0 222 222" fill="none" xmlns="http://www.w3.org/2000/svg">
  <!-- HTFlow Rocket/Flow Icon - Same as used in panel header -->
  <path d="M101.259 119.281L45.0961 0L151.471 125.669L0 222L101.259 119.281Z" fill="#fff"></path>
  <path d="M42.619 119.051C38.1677 113.493 39.2767 105.54 45.0961 101.288L120.962 45.8576C126.782 41.6058 135.108 42.6651 139.559 48.2237L197.59 120.689C202.042 126.248 200.933 134.201 195.113 138.453L119.247 193.883C113.428 198.135 105.102 197.076 100.65 191.517L42.619 119.051Z" fill="#ffdd00"></path>
  <path d="M167.619 118.712C167.619 129.21 158.71 137.72 147.72 137.72C136.73 137.72 127.821 129.21 127.821 118.712C127.821 108.215 136.73 99.7052 147.72 99.7052C158.71 99.7052 167.619 108.215 167.619 118.712Z" fill="#000"></path>
  <path d="M109.248 118.712C109.248 129.21 100.339 137.72 89.3492 137.72C78.3592 137.720 69.45 129.21 69.45 118.712C69.45 108.215 78.3592 99.7052 89.3492 99.7052C100.339 99.7052 109.248 108.215 109.248 118.712Z" fill="#000"></path>
</svg>